<?xml version="1.0" standalone="no"?>
<!DOCTYPE svg PUBLIC "-//W3C//DTD SVG 20010904//EN"
 "http://www.w3.org/TR/2001/REC-SVG-20010904/DTD/svg10.dtd">
<svg version="1.0" xmlns="http://www.w3.org/2000/svg"
 width="68.000000pt" height="68.000000pt" viewBox="0 0 68.000000 68.000000"
 preserveAspectRatio="xMidYMid meet">

<g transform="translate(0.000000,68.000000) scale(0.100000,-0.100000)"
fill="#000000" stroke="none">
<path d="M155 572 c-6 -4 -32 -30 -58 -59 l-48 -51 -2 -90 -2 -90 95 -47 95
-47 45 50 46 51 42 -90 c24 -49 48 -92 56 -95 7 -3 55 10 107 29 104 38 105
40 108 135 1 35 -9 62 -45 128 -25 46 -49 84 -52 84 -4 0 -43 -11 -87 -25 -44
-14 -83 -25 -87 -25 -4 0 -8 17 -10 37 -3 36 -7 39 -78 75 -75 37 -106 44
-125 30z m110 -39 c41 -21 75 -40 75 -43 0 -3 -27 -34 -59 -70 l-58 -64 -79
41 c-43 23 -79 46 -79 51 0 13 104 122 116 122 5 0 42 -17 84 -37z m85 -122
c0 -45 -4 -52 -60 -112 l-59 -64 -1 53 c0 51 3 57 53 113 28 32 55 59 60 59 4
0 7 -22 7 -49z m233 -23 c21 -39 36 -72 34 -74 -2 -2 -44 -14 -94 -28 l-90
-24 -34 69 c-23 49 -30 72 -22 80 12 12 119 47 148 48 15 0 30 -18 58 -71z
m-425 -14 l62 -35 0 -55 0 -56 -67 37 c-38 20 -71 40 -75 43 -4 4 -10 31 -14
61 -8 63 -11 63 94 5z m238 -71 c18 -42 24 -71 22 -108 l-3 -50 -33 80 c-31
78 -39 115 -25 128 11 11 12 9 39 -50z m224 -64 l-5 -62 -80 -23 c-112 -33
-109 -34 -100 34 4 31 8 58 10 60 2 2 139 42 175 51 3 0 3 -27 0 -60z" fill="#eee82c" />
<path d="M172 543 c4 -21 33 -25 33 -3 0 8 -8 16 -18 18 -14 3 -18 -1 -15 -15z" fill="#eee82c"/>
<path d="M275 489 c-8 -12 14 -31 30 -26 6 2 10 10 10 18 0 17 -31 24 -40 8z" fill="#eee82c"/>
<path d="M89 469 c-11 -6 -11 -11 -2 -20 12 -12 43 -6 43 10 0 14 -25 20 -41
10z" fill="#eee82c"/>
<path d="M190 395 c0 -11 7 -15 23 -13 12 2 22 8 22 13 0 6 -10 11 -22 13 -16
2 -23 -2 -23 -13z" fill="#eee82c"/>
<path d="M291 356 c-8 -9 -11 -19 -7 -23 9 -9 29 13 24 27 -2 8 -8 7 -17 -4z" fill="#eee82c"/>
<path d="M405 400 c-4 -7 -3 -16 3 -22 14 -14 45 -2 40 15 -6 16 -34 21 -43 7z" fill="#eee82c"/>
<path d="M472 363 c4 -21 33 -25 33 -3 0 8 -8 16 -18 18 -14 3 -18 -1 -15 -15z" fill="#eee82c"/>
<path d="M543 338 c2 -7 12 -13 22 -13 10 0 20 6 23 13 2 7 -6 12 -23 12 -17
0 -25 -5 -22 -12z" fill="#eee82c"/>
<path d="M156 341 c-8 -12 21 -34 34 -26 8 5 8 11 -1 21 -13 16 -25 18 -33 5z" fill="#eee82c"/>
<path d="M82 328 c3 -7 15 -15 27 -16 16 -3 22 1 19 10 -3 7 -15 15 -27 16
-16 3 -22 -1 -19 -10z" fill="#eee82c"/>
<path d="M380 271 c0 -6 4 -13 10 -16 6 -3 7 1 4 9 -7 18 -14 21 -14 7z" fill="#eee82c"/>
<path d="M563 263 c-17 -6 -16 -33 1 -33 17 0 38 24 29 33 -7 8 -12 8 -30 0z" fill="#eee82c"/>
<path d="M474 186 c-18 -14 -18 -15 -1 -22 22 -8 46 11 31 26 -7 7 -17 5 -30
-4z" fill="#eee82c"/>
<path d="M360 563 c0 -13 5 -23 10 -23 13 0 13 11 0 30 -8 12 -10 11 -10 -7z" fill="#eee82c"/>
<path d="M416 554 c-4 -9 -4 -19 -1 -22 2 -3 7 3 11 12 4 9 4 19 1 22 -2 3 -7
-3 -11 -12z" fill="#eee82c"/>
<path d="M450 530 c-8 -5 -12 -11 -9 -14 2 -3 11 -1 19 4 8 5 12 11 9 14 -2 3
-11 1 -19 -4z" fill="#eee82c"/>
</g>
</svg>
