<?xml version="1.0" standalone="no"?>
<!DOCTYPE svg PUBLIC "-//W3C//DTD SVG 20010904//EN"
 "http://www.w3.org/TR/2001/REC-SVG-20010904/DTD/svg10.dtd">
<svg version="1.0" xmlns="http://www.w3.org/2000/svg"
 width="64.000000pt" height="64.000000pt" viewBox="0 0 64.000000 64.000000"
 preserveAspectRatio="xMidYMid meet">

<g transform="translate(0.000000,64.000000) scale(0.100000,-0.100000)"
fill="#000000" stroke="none">
<path d="M100 526 l0 -76 75 0 c43 0 75 4 75 10 0 6 -22 10 -50 10 -27 0 -50
4 -50 10 0 5 17 21 38 34 143 95 325 20 363 -150 15 -68 34 -72 26 -5 -7 61
-27 100 -72 146 -46 45 -85 65 -145 72 -71 8 -133 -4 -182 -37 l-43 -29 -5 41
c-3 23 -11 43 -17 46 -10 3 -13 -16 -13 -72z"/>
</g>
</svg>
